<svg width="56" height="56" viewBox="0 0 56 56" fill="none" xmlns="http://www.w3.org/2000/svg">
<path d="M4.01489 28.8376C3.9049 25.6878 4.41638 22.5471 5.52014 19.595C6.6239 16.6429 8.29831 13.937 10.4478 11.632C12.5973 9.32699 15.1797 7.4679 18.0476 6.1609C20.9156 4.8539 24.0129 4.12459 27.1627 4.01459C30.3125 3.9046 33.4531 4.41608 36.4053 5.51984C39.3574 6.6236 42.0632 8.29801 44.3682 10.4475C46.6733 12.597 48.5323 15.1794 49.8393 18.0473C51.1463 20.9153 51.8757 24.0126 51.9857 27.1624C52.0956 30.3122 51.5842 33.4528 50.4804 36.405C49.3766 39.3571 47.7022 42.0629 45.5528 44.3679C43.4033 46.673 40.8209 48.532 37.9529 49.839C35.085 51.146 31.9877 51.8754 28.8379 51.9854C25.6881 52.0953 22.5474 51.5839 19.5953 50.4801C16.6432 49.3763 13.9373 47.7019 11.6323 45.5525C9.32729 43.403 7.4682 40.8206 6.1612 37.9526C4.8542 35.0847 4.12489 31.9874 4.01489 28.8376L4.01489 28.8376Z" stroke="#F5F5FD" stroke-width="8"/>
<path d="M4.01489 28.8376C3.9049 25.6878 4.41638 22.5471 5.52014 19.595C6.6239 16.6429 8.29831 13.937 10.4478 11.632C12.5973 9.32699 15.1797 7.4679 18.0476 6.1609C20.9156 4.8539 24.0129 4.12459 27.1627 4.01459C30.3125 3.9046 33.4531 4.41608 36.4053 5.51984C39.3574 6.6236 42.0632 8.29801 44.3682 10.4475C46.6733 12.597 48.5323 15.1794 49.8393 18.0473C51.1463 20.9153 51.8757 24.0126 51.9857 27.1624C52.0956 30.3122 51.5842 33.4528 50.4804 36.405C49.3766 39.3571 47.7022 42.0629 45.5528 44.3679C43.4033 46.673 40.8209 48.532 37.9529 49.839C35.085 51.146 31.9877 51.8754 28.8379 51.9854C25.6881 52.0953 22.5474 51.5839 19.5953 50.4801C16.6432 49.3763 13.9373 47.7019 11.6323 45.5525C9.32729 43.403 7.4682 40.8206 6.1612 37.9526C4.8542 35.0847 4.12489 31.9874 4.01489 28.8376L4.01489 28.8376Z" stroke="url(#paint0_angular_6_243)" stroke-width="8" stroke-linecap="round"/>
<defs>
<radialGradient id="paint0_angular_6_243" cx="0" cy="0" r="1" gradientUnits="userSpaceOnUse" gradientTransform="translate(28.0003 28) rotate(-92) scale(24)">
<stop stop-color="white"/>
<stop offset="0.4" stop-color="#015AD7"/>
<stop offset="1" stop-color="#00C8AF"/>
</radialGradient>
</defs>
</svg>
