<svg width="56" height="56" viewBox="0 0 56 56" fill="none" xmlns="http://www.w3.org/2000/svg">
<path d="M36.639 5.60901C39.5795 6.74346 42.2677 8.44598 44.5502 10.6193C46.8327 12.7927 48.6648 15.3944 49.9419 18.2758C51.2189 21.1572 51.9159 24.2619 51.9931 27.4127C52.0703 30.5635 51.5261 33.6986 50.3916 36.6391C49.2572 39.5796 47.5547 42.2678 45.3813 44.5503C43.2079 46.8328 40.6063 48.6649 37.7249 49.9419C34.8435 51.219 31.7387 51.916 28.5879 51.9932C25.4372 52.0703 22.302 51.5262 19.3616 50.3917C16.4211 49.2573 13.7329 47.5547 11.4503 45.3814C9.16784 43.208 7.33576 40.6063 6.05871 37.7249C4.78166 34.8435 4.08465 31.7388 4.00748 28.588C3.93031 25.4372 4.47448 22.3021 5.60894 19.3616C6.74339 16.4212 8.4459 13.7329 10.6193 11.4504C12.7926 9.16792 15.3943 7.33584 18.2757 6.05879C21.1571 4.78174 24.2618 4.08473 27.4126 4.00756C30.5634 3.93038 33.6985 4.47456 36.639 5.60901L36.639 5.60901Z" stroke="#F5F5FD" stroke-width="8"/>
<path d="M36.639 5.60901C39.5795 6.74346 42.2677 8.44598 44.5502 10.6193C46.8327 12.7927 48.6648 15.3944 49.9419 18.2758C51.2189 21.1572 51.9159 24.2619 51.9931 27.4127C52.0703 30.5635 51.5261 33.6986 50.3916 36.6391C49.2572 39.5796 47.5547 42.2678 45.3813 44.5503C43.2079 46.8328 40.6063 48.6649 37.7249 49.9419C34.8435 51.219 31.7387 51.916 28.5879 51.9932C25.4372 52.0703 22.302 51.5262 19.3616 50.3917C16.4211 49.2573 13.7329 47.5547 11.4503 45.3814C9.16784 43.208 7.33576 40.6063 6.05871 37.7249C4.78166 34.8435 4.08465 31.7388 4.00748 28.588C3.93031 25.4372 4.47448 22.3021 5.60894 19.3616C6.74339 16.4212 8.4459 13.7329 10.6193 11.4504C12.7926 9.16792 15.3943 7.33584 18.2757 6.05879C21.1571 4.78174 24.2618 4.08473 27.4126 4.00756C30.5634 3.93038 33.6985 4.47456 36.639 5.60901L36.639 5.60901Z" stroke="url(#paint0_angular_6_246)" stroke-width="8" stroke-linecap="round"/>
<defs>
<radialGradient id="paint0_angular_6_246" cx="0" cy="0" r="1" gradientUnits="userSpaceOnUse" gradientTransform="translate(28.0003 28.0004) rotate(21.0969) scale(24)">
<stop stop-color="white"/>
<stop offset="0.4" stop-color="#015AD7"/>
<stop offset="1" stop-color="#00C8AF"/>
</radialGradient>
</defs>
</svg>
