<svg width="491" height="183" viewBox="0 0 491 183" fill="none" xmlns="http://www.w3.org/2000/svg">
<path d="M73.3689 0.00494343H61.8859V11.3687H73.3689V0.00494343ZM90.586 0.00494343H79.0043V11.3687H90.586V0.00494343ZM401.549 48.6354C401.549 44.7191 400.326 41.7164 397.878 39.6323C395.43 37.5482 392.09 36.5062 387.856 36.5062C385.008 36.5062 382.23 37.005 379.516 37.9976C376.802 38.9903 374.256 40.2694 371.872 41.8201C369.489 43.3758 367.293 45.0549 365.275 46.8575C363.256 48.6601 361.504 50.3738 360.014 51.9887C358.529 53.6086 357.335 54.9914 356.441 56.1421C355.548 57.2928 355.035 57.9941 354.902 58.241H401.549V48.6305V48.6354ZM473.033 0.00494343H487.788V71.1554H473.033V0.00494343ZM138.161 67.2441C138.161 71.0517 137.84 74.5088 137.199 77.6152C136.557 80.7215 135.511 83.3933 134.065 85.6305C132.615 87.8677 130.68 89.6061 128.252 90.8407C125.824 92.0754 122.795 92.6927 119.158 92.6927C117.608 92.6927 116.039 92.5594 114.455 92.2927C112.871 92.026 111.44 91.626 110.157 91.0926V80.366C111.884 81.4228 114.475 81.6698 115.62 81.6698C118.516 81.6698 120.539 80.4499 121.684 78.0152C122.829 75.5755 123.402 72.2617 123.402 67.254V22.6633H138.156V67.254L138.161 67.2441ZM64.6049 48.8725C64.6049 50.4232 64.748 51.7764 65.0293 52.9369C65.3105 54.0975 65.8287 55.0803 66.5837 55.8803C67.3387 56.6804 68.3602 57.278 69.6481 57.6632C70.9361 58.0484 72.5843 58.2459 74.5976 58.2459H84.541V52.0924C84.541 49.3614 84.4324 46.7439 84.1166 44.5709C83.8008 42.3979 83.2678 40.5657 82.5128 39.0792C81.7578 37.5877 80.7364 36.442 79.4484 35.632C78.1605 34.8271 76.5419 34.4221 74.5927 34.4221C72.6435 34.4221 71.1384 34.8122 69.8801 35.5876C68.6217 36.363 67.6002 37.405 66.8156 38.7088C66.031 40.0126 65.4635 41.4991 65.1181 43.1782C64.7727 44.8574 64.6 46.5612 64.6 48.2996V48.8725H64.6049ZM438.939 71.1554H424.787C420.706 71.1554 417.039 68.6911 415.529 64.9377L415.505 64.8735H415.1L415.075 64.9377C413.565 68.6911 409.899 71.1554 405.818 71.1554H172.255C162.953 71.1554 155.413 63.6932 155.413 54.4827V0H170.167V55.7519C170.167 57.2039 171.12 58.2459 172.605 58.2459H336.402C336.599 56.9767 336.698 55.663 336.698 54.295V0H351.452V45.2673H351.857C354.004 42.6103 356.387 40.0175 359.008 37.4939C361.628 34.9653 364.411 32.7084 367.367 30.7132C370.318 28.718 373.456 27.108 376.782 25.8783C380.108 24.6486 383.582 24.0362 387.204 24.0362C391.034 24.0362 394.641 24.5646 398.031 25.6314C401.421 26.6932 404.377 28.2587 406.894 30.3181C410.353 33.1479 411.991 36.2988 412.884 37.9927C415.065 42.1411 415.86 45.8402 416.146 49.1688L416.304 52.0381V54.295C416.304 55.663 416.205 56.9767 416.008 58.2459H438.589C440.079 58.2459 441.027 57.2039 441.027 55.7519V0H455.781V54.4827C455.781 63.6883 448.241 71.1554 438.939 71.1554ZM86.8603 23.8189C90.0185 25.3301 92.5845 27.4883 94.5633 30.2934C96.547 33.0985 97.9732 36.5161 98.8417 40.541C99.7151 44.566 100.149 49.1391 100.149 54.2457V74.9532C100.149 84.1588 92.6092 91.626 83.3073 91.626H20.9084C11.6065 91.626 4.06633 84.1637 4.06633 74.9532L4.02686 52.29H18.7815V76.1089C18.7815 77.5361 19.9461 78.6918 21.387 78.6918H81.9355C83.3764 78.6918 84.541 77.5361 84.541 76.1089V71.1554H76.4185C71.6713 71.1554 67.4029 70.6566 64.1213 69.6887C60.8397 68.7207 58.1701 67.333 56.1123 65.5353C54.0546 63.7377 52.5692 61.5449 51.6613 58.962C50.7533 56.3791 50.2993 53.4357 50.2993 50.1565C50.2993 45.5883 50.7335 42.151 51.602 38.5508C52.4705 34.9456 53.8868 31.8935 55.8557 29.3847C57.8247 26.8759 60.3808 24.9449 63.5143 23.5967C66.6528 22.2484 70.7288 21.5521 75.2687 21.5521C79.8333 21.5521 83.7021 22.3077 86.8553 23.8189" fill="black"/>
<path d="M451.917 105.632C430.333 105.632 412.835 122.951 412.835 144.316C412.835 165.68 430.333 183 451.917 183C473.502 183 491 165.68 491 144.316C491 122.951 473.502 105.632 451.917 105.632ZM459.166 151.497H444.658V137.135H459.166V151.497ZM271.116 179.894V108.743H310.46C315.76 108.743 320.171 109.676 323.7 111.543C327.223 113.41 329.853 116.023 331.6 119.376C333.342 122.729 334.216 126.586 334.216 130.942C334.216 135.574 333.169 139.674 331.077 143.234C328.985 146.795 325.95 149.511 321.973 151.378L336.624 179.898H319.357L306.695 153.971H286.709V179.898H271.116V179.894ZM286.709 141.516H309.592C312.73 141.516 315.173 140.592 316.915 138.74C318.657 136.893 319.53 134.389 319.53 131.229C319.53 129.214 319.145 127.48 318.38 126.033C317.61 124.586 316.495 123.495 315.03 122.754C313.564 122.013 311.748 121.643 309.587 121.643H286.705V141.511L286.709 141.516ZM233.45 108.743H214.194L186.57 179.894H203.402L208.066 166.411H239.573L244.237 179.894H261.074L233.45 108.743ZM212.374 153.961L223.56 121.648H224.083L235.265 153.966H212.374V153.961ZM46.8794 108.743H27.6243L0 179.894H16.8322L21.4954 166.411H53.0033L57.6666 179.894H74.5037L46.8794 108.743ZM25.8034 153.961L36.9903 121.648H37.5134L48.6954 153.966H25.8034V153.961ZM397.192 137.866H361.356V124.24C361.356 122.808 362.531 121.648 363.972 121.648H405.828V108.743H365.516C361.578 108.743 358.02 109.504 354.847 111.02C351.674 112.536 349.177 114.669 347.352 117.42C345.531 120.171 344.618 123.386 344.618 127.075C344.618 130.038 345.166 132.68 346.261 134.992C347.357 137.308 348.832 139.224 350.692 140.74C352.553 142.256 354.65 143.382 356.984 144.103V144.538C354.65 145.259 352.553 146.38 350.692 147.901C348.832 149.422 347.357 151.334 346.261 153.65C345.166 155.961 344.618 158.603 344.618 161.566C344.618 165.256 345.531 168.471 347.352 171.221C349.177 173.967 351.674 176.101 354.847 177.622C358.02 179.143 361.578 179.898 365.516 179.898H405.828V166.989H363.972C362.526 166.989 361.356 165.828 361.356 164.396V150.771H397.192V137.861V137.866ZM100.159 108.743H84.5458V179.894H136.414V166.722H100.159V108.743ZM192.077 108.743H130.147V121.707H153.202V179.894H168.919V121.707H192.077V108.743Z" fill="black"/>
<path d="M465.429 157.695H438.401V130.942H465.433V157.699L465.429 157.695ZM444.663 151.497H459.171V137.135H444.663V151.497Z" fill="url(#paint0_linear_2079_17401)"/>
<path d="M432.119 124.724V163.917H471.71V124.724H432.119ZM465.428 157.695H438.401V130.942H465.433V157.699L465.428 157.695Z" fill="url(#paint1_linear_2079_17401)"/>
<path d="M425.838 118.507V170.135H477.993V118.507H425.838ZM471.711 163.912H432.115V124.72H471.711V163.912Z" fill="url(#paint2_linear_2079_17401)"/>
<path d="M490.99 183L459.166 151.497H444.658L476.482 183H490.99Z" fill="url(#paint3_radial_2079_17401)"/>
<path d="M315.898 58.2459H179.469V71.1554H315.898V58.2459Z" fill="url(#paint4_linear_2079_17401)"/>
<defs>
<linearGradient id="paint0_linear_2079_17401" x1="437.701" y1="144.021" x2="464.715" y2="144.021" gradientUnits="userSpaceOnUse">
<stop stop-color="#0043A6"/>
<stop offset="0.13" stop-color="#00519F"/>
<stop offset="0.51" stop-color="#00778F"/>
<stop offset="0.81" stop-color="#008F85"/>
<stop offset="1" stop-color="#009882"/>
</linearGradient>
<linearGradient id="paint1_linear_2079_17401" x1="432.119" y1="144.316" x2="471.71" y2="144.316" gradientUnits="userSpaceOnUse">
<stop stop-color="#002D70"/>
<stop offset="0.34" stop-color="#004565"/>
<stop offset="0.75" stop-color="#005D5A"/>
<stop offset="1" stop-color="#006657"/>
</linearGradient>
<linearGradient id="paint2_linear_2079_17401" x1="425.838" y1="144.316" x2="477.993" y2="144.316" gradientUnits="userSpaceOnUse">
<stop stop-color="#001738"/>
<stop offset="0.57" stop-color="#002A2F"/>
<stop offset="1" stop-color="#00332C"/>
</linearGradient>
<radialGradient id="paint3_radial_2079_17401" cx="0" cy="0" r="1" gradientUnits="userSpaceOnUse" gradientTransform="translate(451.502 151.497) rotate(44.2836) scale(45.1202 332.721)">
<stop offset="0.12" stop-color="#40E0C7"/>
<stop offset="0.41" stop-color="#0050C8"/>
<stop offset="0.7"/>
</radialGradient>
<linearGradient id="paint4_linear_2079_17401" x1="179.469" y1="64.7007" x2="315.898" y2="64.7007" gradientUnits="userSpaceOnUse">
<stop stop-color="#000001"/>
<stop offset="0.275" stop-color="#00267E"/>
<stop offset="0.595" stop-color="#00A2FB"/>
<stop offset="0.79" stop-color="#00C2A9"/>
<stop offset="0.95"/>
</linearGradient>
</defs>
</svg>
