<svg width="491" height="183" viewBox="0 0 491 183" fill="none" xmlns="http://www.w3.org/2000/svg">
<path d="M73.3688 0H61.8858V11.364H73.3688V0ZM90.5908 0H79.0091V11.364H90.5908V0ZM401.549 48.6367C401.549 44.7203 400.325 41.7175 397.878 39.6334C395.43 37.5492 392.089 36.5071 387.856 36.5071C385.008 36.5071 382.23 37.006 379.516 37.9987C376.802 38.9913 374.256 40.2705 371.872 41.8212C369.489 43.3769 367.293 45.0561 365.274 46.8587C363.256 48.6614 361.504 50.3751 360.014 51.9901C358.529 53.61 357.335 54.9928 356.441 56.1436C355.548 57.2943 355.035 57.9956 354.902 58.2425H401.549V48.6318V48.6367ZM473.038 0H487.793V71.1524H473.038V0ZM138.166 67.2409C138.166 71.0487 137.845 74.5058 137.204 77.6123C136.562 80.7187 135.516 83.3906 134.07 85.6278C132.619 87.8651 130.685 89.6035 128.257 90.8382C125.829 92.0729 122.799 92.6902 119.163 92.6902C117.613 92.6902 116.044 92.5569 114.46 92.2902C112.876 92.0235 111.445 91.6235 110.162 91.0901V80.3631C111.889 81.42 114.48 81.667 115.624 81.667C118.521 81.667 120.544 80.4471 121.689 78.0123C122.834 75.5726 123.406 72.2587 123.406 67.2508V22.6639H138.161V67.2508L138.166 67.2409ZM64.6048 48.8688C64.6048 50.4196 64.748 51.7728 65.0292 52.9334C65.3105 54.094 65.8286 55.0768 66.5836 55.8769C67.3387 56.6769 68.3601 57.2745 69.6481 57.6598C70.936 58.045 72.5842 58.2425 74.5975 58.2425H84.5409V52.0889C84.5409 49.3577 84.4324 46.7402 84.1166 44.5672C83.8007 42.3941 83.2678 40.5619 82.5128 39.0753C81.7578 37.5838 80.7363 36.438 79.4483 35.628C78.1604 34.823 76.5418 34.4181 74.5926 34.4181C72.6434 34.4181 71.1383 34.8082 69.88 35.5836C68.6217 36.359 67.6002 37.4011 66.8156 38.7049C66.031 40.0087 65.4635 41.4953 65.1181 43.1744C64.7726 44.8487 64.5999 46.5575 64.5999 48.2959V48.8688H64.6048ZM438.944 71.1524H424.792C420.711 71.1524 417.044 68.688 415.534 64.9345L415.509 64.8703H415.105L415.08 64.9345C413.57 68.688 409.904 71.1524 405.823 71.1524H172.26C162.958 71.1524 155.418 63.69 155.418 54.4841V0.00492849H170.172V55.7534C170.172 57.2054 171.125 58.2475 172.61 58.2475H336.407C336.604 56.9782 336.703 55.6645 336.703 54.2965V0.00492849H351.457V45.2734H351.862C354.009 42.6164 356.392 40.0235 359.012 37.4998C361.633 34.9761 364.416 32.7142 367.372 30.7189C370.323 28.7237 373.461 27.1137 376.787 25.8839C380.113 24.6542 383.587 24.0418 387.209 24.0418C391.038 24.0418 394.646 24.5702 398.036 25.637C401.426 26.6988 404.382 28.2644 406.898 30.3238C410.358 33.1537 411.996 36.3047 412.889 37.9987C415.07 42.1472 415.87 45.8463 416.151 49.175L416.309 52.0444V54.3014C416.309 55.6645 416.21 56.9832 416.013 58.2524H438.594C440.084 58.2524 441.032 57.2103 441.032 55.7584V0.00987205H455.786V54.4891C455.786 63.6949 448.246 71.1573 438.944 71.1573M86.8652 23.8146C90.0234 25.3258 92.5894 27.4841 94.5682 30.2893C96.5519 33.0945 97.978 36.5121 98.8465 40.5372C99.72 44.5622 100.154 49.1306 100.154 54.2372V74.9454C100.154 84.1512 92.6141 91.6136 83.3122 91.6136H20.9133C11.6114 91.6136 4.07121 84.1512 4.07121 74.9454L4.03174 52.2864H18.7864V76.1059C18.7864 77.5332 19.951 78.6889 21.3919 78.6889H81.9403C83.3813 78.6889 84.5459 77.5332 84.5459 76.1059V71.1524H76.4234C71.6762 71.1524 67.4077 70.6536 64.1262 69.6856C60.8446 68.7176 58.175 67.3348 56.1172 65.5321C54.0594 63.7344 52.5741 61.5416 51.6661 58.9586C50.7582 56.3757 50.3042 53.4322 50.3042 50.1578C50.3042 45.5895 50.7384 42.1521 51.6069 38.5518C52.4754 34.9465 53.8917 31.8944 55.8606 29.3855C57.8295 26.8766 60.3857 24.9456 63.5192 23.5973C66.6577 22.249 70.7337 21.5526 75.2736 21.5526C79.8382 21.5526 83.707 22.3083 86.8602 23.8195" fill="white"/>
<path d="M451.917 105.63C430.333 105.63 412.835 122.95 412.835 144.315C412.835 165.68 430.333 183 451.917 183C473.502 183 491 165.68 491 144.315C491 122.95 473.502 105.63 451.917 105.63ZM459.171 151.496H444.663V137.139H459.171V151.496ZM271.121 179.889V108.736H310.465C315.765 108.736 320.176 109.67 323.705 111.536C327.228 113.403 329.858 116.016 331.605 119.369C333.347 122.723 334.221 126.58 334.221 130.936C334.221 135.568 333.174 139.667 331.082 143.228C328.99 146.789 325.955 149.505 321.978 151.372L336.629 179.894H319.362L306.7 153.965H286.714V179.894H271.121V179.889ZM286.709 141.515H309.592C312.73 141.515 315.173 140.591 316.915 138.739C318.657 136.892 319.53 134.388 319.53 131.227C319.53 129.212 319.145 127.479 318.38 126.032C317.61 124.585 316.495 123.493 315.03 122.752C313.564 122.012 311.748 121.641 309.587 121.641H286.705V141.51L286.709 141.515ZM233.454 108.741H214.199L186.575 179.894H203.407L208.071 166.411H239.578L244.242 179.894H261.079L233.454 108.741ZM212.378 153.96L223.565 121.646H224.088L235.27 153.965H212.378V153.96ZM46.8794 108.741H27.6243L0 179.894H16.8322L21.4954 166.411H53.0033L57.6666 179.894H74.5037L46.8794 108.741ZM25.8034 153.96L36.9903 121.646H37.5134L48.6954 153.965H25.8034V153.96ZM397.197 137.86H361.361V124.234C361.361 122.802 362.536 121.641 363.977 121.641H405.832V108.736H365.521C361.583 108.736 358.025 109.497 354.852 111.013C351.679 112.529 349.182 114.663 347.357 117.414C345.536 120.164 344.623 123.38 344.623 127.064C344.623 130.027 345.171 132.669 346.266 134.981C347.362 137.297 348.837 139.213 350.697 140.729C352.558 142.246 354.655 143.372 356.989 144.093V144.527C354.655 145.248 352.558 146.369 350.697 147.89C348.837 149.407 347.362 151.323 346.266 153.639C345.171 155.951 344.623 158.593 344.623 161.556C344.623 165.24 345.536 168.46 347.357 171.206C349.182 173.952 351.679 176.086 354.852 177.607C358.025 179.123 361.583 179.884 365.521 179.884H405.832V166.979H363.977C362.531 166.979 361.361 165.818 361.361 164.391V150.765H397.197V137.855V137.86ZM100.159 108.741H84.5458V179.894H136.414V166.722H100.159V108.741ZM192.077 108.741H130.147V121.705H153.202V179.889H168.919V121.705H192.077V108.741Z" fill="white"/>
<path d="M465.433 157.694H438.406V130.941H465.438V157.694H465.433ZM444.663 151.496H459.171V137.139H444.663V151.496Z" fill="url(#paint0_linear_2079_17438)"/>
<path d="M432.125 124.718V163.907H471.715V124.718H432.125ZM465.434 157.694H438.406V130.941H465.438V157.694H465.434Z" fill="url(#paint1_linear_2079_17438)"/>
<path d="M425.843 118.5V170.125H477.997V118.5H425.843ZM471.715 163.912H432.119V124.723H471.715V163.912Z" fill="url(#paint2_linear_2079_17438)"/>
<path d="M491 183L459.171 151.496H444.663L476.492 183H491Z" fill="url(#paint3_radial_2079_17438)"/>
<path d="M315.898 58.2426H179.469V71.1475H315.898V58.2426Z" fill="url(#paint4_linear_2079_17438)"/>
<defs>
<linearGradient id="paint0_linear_2079_17438" x1="437.792" y1="144.02" x2="464.812" y2="144.02" gradientUnits="userSpaceOnUse">
<stop stop-color="#4083E1"/>
<stop offset="0.08" stop-color="#3E8BDD"/>
<stop offset="0.48" stop-color="#36B1CC"/>
<stop offset="0.8" stop-color="#31C9C1"/>
<stop offset="1" stop-color="#30D2BE"/>
</linearGradient>
<linearGradient id="paint1_linear_2079_17438" x1="432.12" y1="144.315" x2="471.715" y2="144.315" gradientUnits="userSpaceOnUse">
<stop stop-color="#80ACEB"/>
<stop offset="0.3" stop-color="#7BC0E1"/>
<stop offset="0.73" stop-color="#76D8D7"/>
<stop offset="1" stop-color="#75E1D4"/>
</linearGradient>
<linearGradient id="paint2_linear_2079_17438" x1="425.838" y1="144.315" x2="477.997" y2="144.315" gradientUnits="userSpaceOnUse">
<stop stop-color="#BFD6F5"/>
<stop offset="0.55" stop-color="#BBE7ED"/>
<stop offset="1" stop-color="#BAF0E9"/>
</linearGradient>
<radialGradient id="paint3_radial_2079_17438" cx="0" cy="0" r="1" gradientUnits="userSpaceOnUse" gradientTransform="translate(451.507 151.496) rotate(44.2813) scale(45.1233 332.742)">
<stop stop-color="#40E0C7"/>
<stop offset="0.304248" stop-color="#0050C8"/>
<stop offset="0.623256" stop-color="white"/>
</radialGradient>
<linearGradient id="paint4_linear_2079_17438" x1="179.469" y1="64.695" x2="315.898" y2="64.695" gradientUnits="userSpaceOnUse">
<stop offset="0.16" stop-color="white"/>
<stop offset="0.48424" stop-color="#0050C8"/>
<stop offset="0.66" stop-color="#40E0C7"/>
<stop offset="0.915" stop-color="white"/>
</linearGradient>
</defs>
</svg>
